<svg version="1.1" id="Layer_1" xmlns="http://www.w3.org/2000/svg" xmlns:xlink="http://www.w3.org/1999/xlink" x="0px" y="0px"
	 width="100%" viewBox="0 0 600 200" enable-background="new 0 0 600 200" xml:space="preserve">
<path fill="#0197B2" opacity="1.000000" stroke="none" 
	d="
M296.000000,201.000000 
	C197.721283,201.000000 99.442558,201.000000 1.081921,201.000000 
	C1.081921,134.425064 1.081921,67.849991 1.081921,1.000000 
	C98.354057,1.000000 195.708374,1.000000 293.562744,1.342677 
	C306.985901,11.218581 318.725403,21.967739 328.464661,34.819901 
	C347.012115,59.295597 355.433777,86.643738 350.913177,117.245941 
	C346.830078,144.886490 332.574402,167.208298 312.648590,186.184555 
	C307.272156,191.304779 301.558716,196.071182 296.000000,201.000000 
M113.513725,104.675644 
	C113.513725,100.881546 113.513725,97.087440 113.513725,93.117622 
	C106.178474,91.916420 109.289375,99.514366 106.219872,101.176216 
	C102.855850,99.305504 105.566246,92.044266 99.394615,92.934753 
	C99.394615,98.284073 99.394615,102.926064 99.394615,107.568054 
	C99.841484,107.552513 100.288353,107.536972 100.735222,107.521431 
	C101.102699,105.343758 101.470169,103.166084 101.966934,100.222237 
	C103.473862,103.338989 104.545593,105.555618 106.130295,108.833221 
	C107.689079,105.355789 108.688454,103.126320 109.687828,100.896851 
	C110.577690,102.713165 110.547981,104.347435 110.839798,105.922127 
	C110.945747,106.493843 111.819504,106.923286 112.342934,107.417648 
	C112.731544,106.770332 113.120155,106.123024 113.513725,104.675644 
M179.934738,94.942535 
	C179.417938,94.269249 178.901123,93.595970 178.384323,92.922684 
	C177.550110,94.635269 176.715881,96.347855 175.757675,98.314987 
	C174.352905,98.314987 172.635452,98.314987 170.849930,98.314987 
	C170.666901,97.377502 170.670486,96.678772 170.391953,96.120888 
	C169.838501,95.012344 169.129669,93.981369 168.485031,92.918343 
	C168.048096,94.029259 167.331024,95.116127 167.233109,96.256165 
	C167.035248,98.559921 167.009460,100.908501 167.232834,103.207489 
	C167.373856,104.659126 168.094238,106.054482 168.554749,107.475082 
	C169.190567,106.042702 169.832230,104.612862 170.459351,103.176682 
	C170.710526,102.601471 170.929718,102.012291 171.137970,101.493019 
	C172.966202,101.493019 174.560745,101.493019 176.322693,101.493019 
	C176.487671,102.500809 176.484039,103.340424 176.775101,104.061012 
	C177.249100,105.234489 177.915634,106.330193 178.500916,107.458733 
	C178.983658,106.241699 179.782104,105.050385 179.883743,103.802315 
	C180.098312,101.167564 179.948380,98.503128 179.934738,94.942535 
M187.610931,105.016541 
	C186.968201,104.055573 186.325455,103.094597 185.449905,101.785545 
	C188.785614,101.342873 191.184189,101.024567 193.582764,100.706253 
	C186.391449,97.269386 186.391449,97.269386 186.594681,95.519333 
	C189.140121,95.215500 191.658813,94.914856 194.177490,94.614212 
	C194.133041,94.159653 194.088593,93.705093 194.044144,93.250534 
	C190.394836,93.250534 186.745514,93.250534 182.928192,93.250534 
	C182.928192,97.883720 182.928192,102.469116 182.928192,106.809334 
	C187.016861,106.809334 190.813293,106.809334 194.609711,106.809334 
	C194.603363,106.219810 194.597000,105.630287 194.590652,105.040764 
	C192.563263,105.040764 190.535873,105.040764 187.610931,105.016541 
M55.624992,104.720512 
	C55.379681,99.703735 58.723076,101.451820 61.492176,101.522560 
	C61.623188,102.648415 61.566654,103.668289 61.889755,104.548859 
	C62.272930,105.593178 62.983059,106.517525 63.551491,107.493866 
	C64.051064,106.457039 64.896973,105.447647 64.981735,104.377945 
	C65.190620,101.741898 65.200935,99.065628 64.982445,96.431129 
	C64.881966,95.219704 64.057449,94.068321 63.561253,92.889717 
	C62.985329,93.994293 62.349716,95.073212 61.858944,96.214409 
	C61.617565,96.775681 61.644371,97.452278 61.511204,98.331665 
	C59.611279,98.331665 57.894676,98.331665 56.066128,98.331665 
	C55.897892,97.476639 55.886749,96.794502 55.626148,96.226875 
	C55.098053,95.076607 54.434845,93.988358 53.827343,92.874542 
	C53.309753,94.070213 52.433781,95.240181 52.345798,96.466675 
	C52.132862,99.435104 52.186672,102.435944 52.365513,105.409737 
	C52.409378,106.139061 53.345726,106.814720 53.871761,107.515045 
	C54.450348,106.862427 55.028934,106.209808 55.624992,104.720512 
M251.045837,104.944695 
	C251.047379,102.293602 251.204681,99.629631 250.987183,96.996635 
	C250.872009,95.602577 250.105103,94.262360 249.632431,92.897842 
	C249.030045,94.140594 248.404968,95.373123 247.837860,96.631783 
	C247.645752,97.058128 247.600220,97.550514 247.417023,98.303162 
	C245.665894,98.303162 243.952026,98.303162 242.027893,98.303162 
	C241.883850,97.376053 241.907715,96.524544 241.603897,95.812935 
	C241.163101,94.780479 240.485641,93.849060 239.909134,92.874550 
	C239.366028,93.875351 238.488358,94.832893 238.352188,95.886307 
	C238.099350,97.841965 238.084579,99.878441 238.334305,101.834854 
	C238.579956,103.759361 239.276764,105.626282 239.775620,107.518471 
	C240.486191,105.747330 241.186539,103.971939 241.917389,102.209198 
	C242.039383,101.914948 242.293900,101.675629 242.617645,101.232277 
	C244.110016,101.307037 245.719940,101.387688 247.547729,101.479256 
	C247.686249,103.197884 247.440796,104.815643 248.002625,106.072517 
	C248.935013,108.158302 250.218964,108.248505 251.045837,104.944695 
M126.016106,105.957199 
	C126.870811,106.563629 127.725525,107.170067 128.580231,107.776497 
	C128.029709,102.744293 126.737381,98.489685 124.869614,94.504799 
	C124.517067,93.752640 120.675385,93.536667 120.475693,93.982819 
	C118.566093,98.249054 117.093704,102.710999 115.192688,107.952789 
	C119.592743,107.169052 121.388649,100.404396 126.016106,105.957199 
M94.933983,94.378868 
	C91.202606,93.691330 87.471230,93.003792 83.091194,92.196739 
	C83.091194,97.344513 83.020355,101.290901 83.153404,105.230400 
	C83.178772,105.981468 84.009430,106.705338 84.468552,107.441757 
	C85.054146,106.831047 85.906982,106.313721 86.160904,105.587097 
	C86.516167,104.570488 86.424973,103.397850 86.670090,100.681984 
	C90.127083,103.602882 92.693085,105.770966 95.259087,107.939041 
	C95.572243,107.607567 95.885391,107.276085 96.198547,106.944603 
	C95.188606,105.137520 94.178665,103.330429 93.168724,101.523346 
	C93.654518,101.538048 94.140312,101.552750 94.626106,101.567451 
	C94.882118,99.393280 95.138138,97.219116 94.933983,94.378868 
M201.074799,104.043114 
	C203.984329,105.043274 206.893860,106.043434 210.264008,107.201935 
	C208.710129,102.865028 207.433472,98.943687 205.856537,95.147072 
	C205.451492,94.171875 204.101318,92.997894 203.182388,92.995384 
	C202.280716,92.992912 200.952072,94.189163 200.545975,95.165199 
	C198.932709,99.042778 197.606964,103.039986 196.174698,106.992874 
	C196.642456,107.283852 197.110214,107.574837 197.577972,107.865822 
	C198.514801,106.710724 199.451630,105.555634 201.074799,104.043114 
M72.033424,104.000458 
	C74.866066,105.036736 77.698700,106.073013 81.136086,107.330521 
	C79.542435,102.852127 78.257675,98.640648 76.535957,94.616119 
	C75.400146,91.961151 73.061119,91.705261 71.806877,94.333298 
	C69.868591,98.394653 68.587090,102.769463 67.027046,107.011345 
	C67.502693,107.297340 67.978333,107.583344 68.453979,107.869347 
	C69.412636,106.690109 70.371292,105.510864 72.033424,104.000458 
M133.519119,106.016136 
	C139.422928,109.053726 142.586304,108.296669 144.671844,103.057083 
	C141.086914,102.917709 135.364838,109.033646 134.640778,100.768959 
	C133.832657,91.544739 140.814133,96.918861 145.060165,97.011490 
	C142.056946,92.612473 137.930267,91.503479 134.437424,93.550072 
	C130.853363,95.650101 130.288864,100.243530 133.519119,106.016136 
M40.608246,92.839653 
	C37.466118,94.448715 36.840702,104.988747 39.770828,107.445648 
	C39.910645,107.562881 40.366966,107.302650 40.865078,107.166489 
	C41.130260,105.687027 41.409096,104.131424 41.693604,102.544159 
	C42.614338,102.451538 43.266239,102.325668 43.917141,102.330627 
	C47.235275,102.355911 50.097172,101.544128 50.140175,97.586067 
	C50.188457,93.142204 46.880875,92.823875 43.520767,92.833336 
	C42.856842,92.835205 42.192905,92.832687 40.608246,92.839653 
M155.129730,94.850555 
	C154.387268,95.959190 153.644821,97.067825 152.962219,98.087090 
	C151.063599,95.864723 149.554840,94.098724 148.046097,92.332718 
	C148.760254,97.528175 149.999374,102.005539 151.355164,106.447281 
	C151.495728,106.907784 152.330444,107.428398 152.841873,107.427162 
	C153.352463,107.425926 154.176453,106.902679 154.322357,106.438370 
	C155.718475,101.995270 156.999832,97.516121 158.471497,92.512154 
	C157.471161,93.108681 156.491745,93.692734 155.129730,94.850555 
M215.691574,107.641777 
	C218.197861,107.519936 220.704163,107.398087 223.210449,107.276245 
	C223.199326,106.672173 223.188202,106.068108 223.177078,105.464043 
	C220.727036,105.183807 218.276993,104.903572 215.446533,104.579819 
	C215.446533,101.396797 215.558960,98.438576 215.379257,95.498222 
	C215.324036,94.594971 214.469543,93.740570 213.981033,92.863792 
	C213.363983,93.780815 212.290100,94.662071 212.214981,95.621521 
	C211.983551,98.577858 211.890625,101.594627 212.258713,104.523216 
	C212.400284,105.649437 213.929230,106.601295 215.691574,107.641777 
M232.121292,96.123711 
	C233.667496,95.434837 235.213699,94.745964 237.867599,93.563591 
	C232.376144,93.563591 228.283905,93.563591 224.191666,93.563591 
	C224.185181,93.902779 224.178680,94.241966 224.172195,94.581154 
	C225.660660,94.968567 227.149139,95.355980 228.872650,95.804565 
	C228.872650,99.111603 228.781342,102.238792 228.941391,105.353073 
	C228.978134,106.068321 229.878738,106.739166 230.381790,107.430450 
	C230.909119,106.760643 231.845535,106.117828 231.891830,105.416283 
	C232.076431,102.618034 231.983978,99.801498 232.121292,96.123711 
z"/>
<path fill="#FFFFFF" opacity="1.000000" stroke="none" 
	d="
M296.468658,201.000000 
	C301.558716,196.071182 307.272156,191.304779 312.648590,186.184555 
	C332.574402,167.208298 346.830078,144.886490 350.913177,117.245941 
	C355.433777,86.643738 347.012115,59.295597 328.464661,34.819901 
	C318.725403,21.967739 306.985901,11.218581 294.031433,1.342677 
	C396.278198,1.000000 498.556396,1.000000 600.917297,1.000000 
	C600.917297,67.575516 600.917297,134.151169 600.917297,201.000000 
	C499.645935,201.000000 398.291626,201.000000 296.468658,201.000000 
M438.370178,140.128784 
	C452.389923,153.604187 466.409637,167.079605 480.461365,180.585770 
	C481.450958,179.976273 482.087585,179.725677 482.539429,179.285416 
	C498.286224,163.941620 514.335266,148.890015 529.638306,133.114883 
	C540.347351,122.075462 541.792664,107.044693 534.754456,94.820206 
	C527.437500,82.111565 513.415100,75.451241 498.996704,79.293304 
	C492.366333,81.060081 486.440063,85.469170 479.590668,88.990517 
	C479.469818,88.879890 478.381836,87.884888 477.294891,86.888695 
	C463.695160,74.424347 442.923706,75.032898 430.485962,88.260208 
	C417.375214,102.203217 418.160553,120.962593 432.420837,134.479187 
	C434.234100,136.197922 436.047546,137.916550 438.370178,140.128784 
M457.227356,59.242962 
	C458.164764,60.187157 459.051605,61.188705 460.047363,62.066750 
	C470.900238,71.636986 487.035034,72.287346 498.236908,63.628139 
	C509.840240,54.658607 513.378357,38.856918 506.671600,25.957335 
	C499.964355,13.056762 484.942200,6.658934 471.016418,11.164176 
	C450.256653,17.880363 443.758698,42.549656 457.227356,59.242962 
z"/>
<path fill="#E8F5F8" opacity="1.000000" stroke="none" 
	d="
M113.511246,105.075684 
	C113.120155,106.123024 112.731544,106.770332 112.342934,107.417648 
	C111.819504,106.923286 110.945747,106.493843 110.839798,105.922127 
	C110.547981,104.347435 110.577690,102.713165 109.687828,100.896851 
	C108.688454,103.126320 107.689079,105.355789 106.130295,108.833221 
	C104.545593,105.555618 103.473862,103.338989 101.966934,100.222237 
	C101.470169,103.166084 101.102699,105.343758 100.735222,107.521431 
	C100.288353,107.536972 99.841484,107.552513 99.394615,107.568054 
	C99.394615,102.926064 99.394615,98.284073 99.394615,92.934753 
	C105.566246,92.044266 102.855850,99.305504 106.219872,101.176216 
	C109.289375,99.514366 106.178474,91.916420 113.513725,93.117622 
	C113.513725,97.087440 113.513725,100.881546 113.511246,105.075684 
z"/>
<path fill="#E5F4F7" opacity="1.000000" stroke="none" 
	d="
M179.941376,95.396706 
	C179.948380,98.503128 180.098312,101.167564 179.883743,103.802315 
	C179.782104,105.050385 178.983658,106.241699 178.500916,107.458725 
	C177.915634,106.330193 177.249100,105.234489 176.775101,104.061012 
	C176.484039,103.340424 176.487671,102.500809 176.322693,101.493019 
	C174.560745,101.493019 172.966202,101.493019 171.137970,101.493019 
	C170.929718,102.012291 170.710526,102.601471 170.459351,103.176682 
	C169.832230,104.612862 169.190567,106.042702 168.554749,107.475082 
	C168.094238,106.054482 167.373856,104.659126 167.232834,103.207489 
	C167.009460,100.908501 167.035248,98.559921 167.233109,96.256165 
	C167.331024,95.116127 168.048096,94.029259 168.485031,92.918343 
	C169.129669,93.981369 169.838501,95.012344 170.391953,96.120888 
	C170.670486,96.678772 170.666901,97.377502 170.849930,98.314987 
	C172.635452,98.314987 174.352905,98.314987 175.757675,98.314987 
	C176.715881,96.347855 177.550110,94.635269 178.384323,92.922684 
	C178.901123,93.595970 179.417938,94.269249 179.941376,95.396706 
z"/>
<path fill="#E4F4F6" opacity="1.000000" stroke="none" 
	d="
M188.059708,105.028656 
	C190.535873,105.040764 192.563263,105.040764 194.590652,105.040764 
	C194.597000,105.630287 194.603363,106.219810 194.609711,106.809334 
	C190.813293,106.809334 187.016861,106.809334 182.928192,106.809334 
	C182.928192,102.469116 182.928192,97.883720 182.928192,93.250534 
	C186.745514,93.250534 190.394836,93.250534 194.044144,93.250534 
	C194.088593,93.705093 194.133041,94.159653 194.177490,94.614212 
	C191.658813,94.914856 189.140121,95.215500 186.594681,95.519333 
	C186.391449,97.269386 186.391449,97.269386 193.582764,100.706253 
	C191.184189,101.024567 188.785614,101.342873 185.449905,101.785545 
	C186.325455,103.094597 186.968201,104.055573 188.059708,105.028656 
z"/>
<path fill="#DDF1F4" opacity="1.000000" stroke="none" 
	d="
M55.616257,105.138855 
	C55.028934,106.209808 54.450348,106.862427 53.871758,107.515045 
	C53.345726,106.814720 52.409378,106.139061 52.365513,105.409737 
	C52.186672,102.435944 52.132862,99.435104 52.345798,96.466675 
	C52.433781,95.240181 53.309753,94.070213 53.827343,92.874542 
	C54.434845,93.988358 55.098053,95.076607 55.626148,96.226875 
	C55.886749,96.794502 55.897892,97.476639 56.066128,98.331665 
	C57.894676,98.331665 59.611279,98.331665 61.511204,98.331665 
	C61.644371,97.452278 61.617565,96.775681 61.858944,96.214409 
	C62.349716,95.073212 62.985329,93.994293 63.561256,92.889717 
	C64.057449,94.068321 64.881966,95.219704 64.982445,96.431129 
	C65.200935,99.065628 65.190620,101.741898 64.981735,104.377945 
	C64.896973,105.447647 64.051064,106.457039 63.551491,107.493866 
	C62.983059,106.517525 62.272930,105.593178 61.889755,104.548859 
	C61.566654,103.668289 61.623188,102.648415 61.492176,101.522560 
	C58.723076,101.451820 55.379681,99.703735 55.616257,105.138855 
z"/>
<path fill="#DDF1F4" opacity="1.000000" stroke="none" 
	d="
M251.040588,105.379066 
	C250.218964,108.248505 248.935013,108.158302 248.002625,106.072517 
	C247.440796,104.815643 247.686249,103.197884 247.547729,101.479256 
	C245.719940,101.387688 244.110016,101.307037 242.617645,101.232277 
	C242.293900,101.675629 242.039383,101.914948 241.917389,102.209198 
	C241.186539,103.971939 240.486191,105.747330 239.775604,107.518471 
	C239.276764,105.626282 238.579956,103.759361 238.334305,101.834854 
	C238.084579,99.878441 238.099350,97.841965 238.352188,95.886307 
	C238.488358,94.832893 239.366028,93.875351 239.909134,92.874550 
	C240.485641,93.849060 241.163101,94.780479 241.603897,95.812935 
	C241.907715,96.524544 241.883850,97.376053 242.027893,98.303162 
	C243.952026,98.303162 245.665894,98.303162 247.417023,98.303162 
	C247.600220,97.550514 247.645752,97.058128 247.837860,96.631783 
	C248.404968,95.373123 249.030045,94.140594 249.632416,92.897842 
	C250.105103,94.262360 250.872009,95.602577 250.987183,96.996635 
	C251.204681,99.629631 251.047379,102.293602 251.040588,105.379066 
z"/>
<path fill="#DAF0F4" opacity="1.000000" stroke="none" 
	d="
M125.908134,105.603676 
	C121.388649,100.404396 119.592743,107.169052 115.192688,107.952789 
	C117.093704,102.710999 118.566093,98.249054 120.475693,93.982819 
	C120.675385,93.536667 124.517067,93.752640 124.869614,94.504799 
	C126.737381,98.489685 128.029709,102.744293 128.580231,107.776497 
	C127.725525,107.170067 126.870811,106.563629 125.908134,105.603676 
z"/>
<path fill="#EBF7F9" opacity="1.000000" stroke="none" 
	d="
M95.164062,94.711906 
	C95.138138,97.219116 94.882118,99.393280 94.626106,101.567451 
	C94.140312,101.552750 93.654518,101.538048 93.168724,101.523346 
	C94.178665,103.330429 95.188606,105.137520 96.198547,106.944603 
	C95.885391,107.276085 95.572243,107.607567 95.259087,107.939041 
	C92.693085,105.770966 90.127083,103.602882 86.670090,100.681984 
	C86.424973,103.397850 86.516167,104.570488 86.160904,105.587097 
	C85.906982,106.313721 85.054146,106.831047 84.468552,107.441757 
	C84.009430,106.705338 83.178772,105.981468 83.153404,105.230400 
	C83.020355,101.290901 83.091194,97.344513 83.091194,92.196739 
	C87.471230,93.003792 91.202606,93.691330 95.164062,94.711906 
M87.025009,95.313454 
	C85.912239,97.187553 84.967087,99.292297 88.265457,99.502068 
	C89.735138,99.595535 91.294022,98.286522 92.812416,97.614052 
	C91.142029,96.786682 89.471649,95.959305 87.025009,95.313454 
z"/>
<path fill="#E1F2F6" opacity="1.000000" stroke="none" 
	d="
M200.731628,104.221825 
	C199.451630,105.555634 198.514801,106.710724 197.577972,107.865822 
	C197.110214,107.574837 196.642456,107.283852 196.174698,106.992874 
	C197.606964,103.039986 198.932709,99.042778 200.545975,95.165199 
	C200.952072,94.189163 202.280716,92.992912 203.182388,92.995384 
	C204.101318,92.997894 205.451492,94.171875 205.856537,95.147072 
	C207.433472,98.943687 208.710129,102.865028 210.264008,107.201935 
	C206.893860,106.043434 203.984329,105.043274 200.731628,104.221825 
z"/>
<path fill="#E3F3F6" opacity="1.000000" stroke="none" 
	d="
M71.681686,104.166039 
	C70.371292,105.510864 69.412636,106.690109 68.453979,107.869347 
	C67.978333,107.583344 67.502693,107.297340 67.027046,107.011345 
	C68.587090,102.769463 69.868591,98.394653 71.806877,94.333298 
	C73.061119,91.705261 75.400146,91.961151 76.535957,94.616119 
	C78.257675,98.640648 79.542435,102.852127 81.136086,107.330521 
	C77.698700,106.073013 74.866066,105.036736 71.681686,104.166039 
z"/>
<path fill="#E1F2F6" opacity="1.000000" stroke="none" 
	d="
M133.246216,105.739914 
	C130.288864,100.243530 130.853363,95.650101 134.437424,93.550072 
	C137.930267,91.503479 142.056946,92.612473 145.060165,97.011490 
	C140.814133,96.918861 133.832657,91.544739 134.640778,100.768959 
	C135.364838,109.033646 141.086914,102.917709 144.671844,103.057083 
	C142.586304,108.296669 139.422928,109.053726 133.246216,105.739914 
z"/>
<path fill="#EDF7F9" opacity="1.000000" stroke="none" 
	d="
M41.068611,92.835922 
	C42.192905,92.832687 42.856842,92.835205 43.520767,92.833336 
	C46.880875,92.823875 50.188457,93.142204 50.140175,97.586067 
	C50.097172,101.544128 47.235275,102.355911 43.917141,102.330627 
	C43.266239,102.325668 42.614338,102.451538 41.693604,102.544159 
	C41.409096,104.131424 41.130260,105.687027 40.865078,107.166489 
	C40.366966,107.302650 39.910645,107.562881 39.770828,107.445648 
	C36.840702,104.988747 37.466118,94.448715 41.068611,92.835922 
M41.174690,97.574150 
	C41.319706,101.287796 43.904728,100.106102 45.697380,99.517830 
	C46.315311,99.315056 46.389996,97.456810 46.712841,96.354782 
	C44.873409,96.491699 43.033978,96.628616 41.174690,97.574150 
z"/>
<path fill="#E1F2F6" opacity="1.000000" stroke="none" 
	d="
M155.321030,94.563675 
	C156.491745,93.692734 157.471161,93.108681 158.471497,92.512154 
	C156.999832,97.516121 155.718475,101.995270 154.322357,106.438370 
	C154.176453,106.902679 153.352463,107.425926 152.841873,107.427162 
	C152.330444,107.428398 151.495728,106.907784 151.355164,106.447281 
	C149.999374,102.005539 148.760254,97.528175 148.046097,92.332718 
	C149.554840,94.098724 151.063599,95.864723 152.962219,98.087090 
	C153.644821,97.067825 154.387268,95.959190 155.321030,94.563675 
z"/>
<path fill="#D6EEF2" opacity="1.000000" stroke="none" 
	d="
M215.258804,107.637192 
	C213.929230,106.601295 212.400284,105.649437 212.258713,104.523216 
	C211.890625,101.594627 211.983551,98.577858 212.214981,95.621521 
	C212.290100,94.662071 213.363983,93.780815 213.981033,92.863800 
	C214.469543,93.740570 215.324036,94.594971 215.379257,95.498222 
	C215.558960,98.438576 215.446533,101.396797 215.446533,104.579819 
	C218.276993,104.903572 220.727036,105.183807 223.177078,105.464043 
	C223.188202,106.068108 223.199326,106.672173 223.210449,107.276245 
	C220.704163,107.398087 218.197861,107.519936 215.258804,107.637192 
z"/>
<path fill="#F0F9FA" opacity="1.000000" stroke="none" 
	d="
M232.057678,96.557724 
	C231.983978,99.801498 232.076431,102.618034 231.891830,105.416283 
	C231.845535,106.117828 230.909119,106.760643 230.381790,107.430450 
	C229.878738,106.739166 228.978134,106.068321 228.941391,105.353073 
	C228.781342,102.238792 228.872650,99.111603 228.872650,95.804565 
	C227.149139,95.355980 225.660660,94.968567 224.172195,94.581154 
	C224.178680,94.241966 224.185181,93.902779 224.191666,93.563591 
	C228.283905,93.563591 232.376144,93.563591 237.867599,93.563591 
	C235.213699,94.745964 233.667496,95.434837 232.057678,96.557724 
z"/>
<path fill="#C1FF73" opacity="1.000000" stroke="none" 
	d="
M438.115540,139.882004 
	C436.047546,137.916550 434.234100,136.197922 432.420837,134.479187 
	C418.160553,120.962593 417.375214,102.203217 430.485962,88.260208 
	C442.923706,75.032898 463.695160,74.424347 477.294891,86.888695 
	C478.381836,87.884888 479.469818,88.879890 479.590668,88.990517 
	C486.440063,85.469170 492.366333,81.060081 498.996704,79.293304 
	C513.415100,75.451241 527.437500,82.111565 534.754456,94.820206 
	C541.792664,107.044693 540.347351,122.075462 529.638306,133.114883 
	C514.335266,148.890015 498.286224,163.941620 482.539429,179.285416 
	C482.087585,179.725677 481.450958,179.976273 480.461365,180.585770 
	C466.409637,167.079605 452.389923,153.604187 438.115540,139.882004 
z"/>
<path fill="#0298B3" opacity="1.000000" stroke="none" 
	d="
M457.005798,58.959915 
	C443.758698,42.549656 450.256653,17.880363 471.016418,11.164176 
	C484.942200,6.658934 499.964355,13.056762 506.671600,25.957335 
	C513.378357,38.856918 509.840240,54.658607 498.236908,63.628139 
	C487.035034,72.287346 470.900238,71.636986 460.047363,62.066750 
	C459.051605,61.188705 458.164764,60.187157 457.005798,58.959915 
z"/>
<path fill="#2CA6BD" opacity="1.000000" stroke="none" 
	d="
M87.413132,95.222687 
	C89.471649,95.959305 91.142029,96.786682 92.812416,97.614052 
	C91.294022,98.286522 89.735138,99.595535 88.265457,99.502068 
	C84.967087,99.292297 85.912239,97.187553 87.413132,95.222687 
z"/>
<path fill="#1DA1B9" opacity="1.000000" stroke="none" 
	d="
M41.184616,97.169846 
	C43.033978,96.628616 44.873409,96.491699 46.712841,96.354782 
	C46.389996,97.456810 46.315311,99.315056 45.697380,99.517830 
	C43.904728,100.106102 41.319706,101.287796 41.184616,97.169846 
z"/>
</svg>